<svg width="290" height="256" viewBox="0 0 290 256" fill="none" xmlns="http://www.w3.org/2000/svg">
<g filter="url(#filter0_dd_94_668)">
<mask id="mask0_94_668" style="mask-type:alpha" maskUnits="userSpaceOnUse" x="17" y="9" width="256" height="186">
<path d="M132.267 138.075L164.702 130.351L156.977 97.9159L124.542 105.641L132.267 138.075Z" fill="#F9E050"/>
<path d="M65.4017 69.2512L97.8365 61.5266L92.1871 37.8056L59.7523 45.5303L65.4017 69.2512Z" fill="#F4F464"/>
<path d="M94.972 87.4455L127.407 79.7208L119.682 47.286L87.2473 55.0107L94.972 87.4455ZM23.3411 104.505L47.2235 98.8173L41.5356 74.9349L17.6533 80.6228L23.3411 104.505ZM76.7698 116.983L100.652 111.296L94.9643 87.4132L71.082 93.101L76.7698 116.983Z" fill="#F4F464"/>
<path d="M137.94 161.894L170.374 154.169L162.65 121.734L130.215 129.459L137.94 161.894Z" fill="#F9B038"/>
<path d="M133.061 179.289L174.016 169.535L168.328 145.652L127.373 155.406L133.061 179.289Z" fill="#F6842D"/>
<path d="M69.9674 194.315L93.8497 188.627L88.1619 164.745L64.2795 170.433L69.9674 194.315Z" fill="#F9E050"/>
<path d="M115.204 66.4282L147.638 58.7035L139.952 26.4301L107.517 34.1548L115.204 66.4282Z" fill="#F6842D"/>
<path d="M88.1414 164.733L112.024 159.045L106.336 135.163L82.4536 140.851L88.1414 164.733Z" fill="#F4F464"/>
<path d="M144.628 84.6574L177.063 76.9328L169.338 44.498L136.903 52.2227L144.628 84.6574Z" fill="#F4AC2B"/>
<path d="M150.304 108.491L182.739 100.766L175.014 68.3315L142.58 76.0562L150.304 108.491Z" fill="#F6842D"/>
<path d="M156.004 132.422L188.439 124.697L180.714 92.2621L148.279 99.9868L156.004 132.422Z" fill="#F4AC2B"/>
<path d="M161.676 156.24L194.111 148.516L186.386 116.081L153.952 123.806L161.676 156.24Z" fill="#F6842D"/>
<path d="M131.415 28.4635L137.065 52.1845L160.786 46.5351L183.529 142.032L159.647 147.72L165.335 171.602L229.349 156.357C238.967 154.066 247.032 150.986 253.509 147.107C259.993 143.261 264.823 138.052 268.035 131.49C271.246 124.927 272.867 116.697 272.833 106.815C272.806 96.9654 271.063 84.8474 267.627 70.4212C264.16 55.8659 260.331 44.296 256.129 35.7475C251.873 27.0415 246.943 20.6615 241.343 16.6238C235.738 12.3905 228.928 10.0577 221.904 9.96504C214.585 9.66196 206.044 10.673 196.313 12.9904L155.116 22.8019L131.415 28.4635ZM184.697 36.458L200.14 32.7802C205.465 31.5119 210.226 31.026 214.359 31.3377C218.64 31.5115 222.679 33.3684 225.599 36.5047C228.968 39.6243 231.984 44.4137 234.684 50.8814C237.529 57.3145 240.268 66.0921 242.919 77.2264C245.563 88.3284 247.058 97.4703 247.465 104.62C247.987 111.607 247.469 117.306 245.914 121.735C244.478 125.825 241.703 129.31 238.038 131.625C234.462 133.79 230.089 135.479 224.877 136.721L209.451 140.395L184.697 36.458Z" fill="#F14D34"/>
<path d="M118.855 81.7583L142.737 76.0705L137.049 52.1882L113.167 57.876L118.855 81.7583Z" fill="#F9E050"/>
<path d="M117.716 182.943L141.598 177.255L135.91 153.373L112.028 159.061L117.716 182.943Z" fill="#F9B038"/>
<path d="M89.2843 63.5633L113.167 57.8754L107.517 34.1545L83.6349 39.8423L89.2843 63.5633Z" fill="#F9E050"/>
</mask>
<g mask="url(#mask0_94_668)">
<g filter="url(#filter1_d_94_668)">
<path d="M132.267 138.075L164.702 130.351L156.977 97.9159L124.542 105.641L132.267 138.075Z" fill="#F9E050"/>
<path d="M65.4017 69.2512L97.8365 61.5266L92.1871 37.8056L59.7523 45.5303L65.4017 69.2512Z" fill="#F4F464"/>
<path d="M94.972 87.4455L127.407 79.7208L119.682 47.286L87.2473 55.0107L94.972 87.4455ZM23.3411 104.505L47.2235 98.8173L41.5356 74.9349L17.6533 80.6228L23.3411 104.505ZM76.7698 116.983L100.652 111.296L94.9643 87.4132L71.082 93.101L76.7698 116.983Z" fill="#F4F464"/>
<path d="M137.94 161.894L170.374 154.169L162.65 121.734L130.215 129.459L137.94 161.894Z" fill="#F9B038"/>
<path d="M133.061 179.289L174.016 169.535L168.328 145.652L127.373 155.406L133.061 179.289Z" fill="#F6842D"/>
<path d="M69.9674 194.315L93.8497 188.627L88.1619 164.745L64.2795 170.433L69.9674 194.315Z" fill="#F9E050"/>
<path d="M115.204 66.4282L147.638 58.7035L139.952 26.4301L107.517 34.1548L115.204 66.4282Z" fill="#F6842D"/>
<path d="M88.1414 164.733L112.024 159.045L106.336 135.163L82.4536 140.851L88.1414 164.733Z" fill="#F4F464"/>
<path d="M144.628 84.6574L177.063 76.9328L169.338 44.498L136.903 52.2227L144.628 84.6574Z" fill="#F4AC2B"/>
<path d="M150.304 108.491L182.739 100.766L175.014 68.3315L142.58 76.0562L150.304 108.491Z" fill="#F6842D"/>
<path d="M156.004 132.422L188.439 124.697L180.714 92.2621L148.279 99.9868L156.004 132.422Z" fill="#F4AC2B"/>
<path d="M161.676 156.24L194.111 148.516L186.386 116.081L153.952 123.806L161.676 156.24Z" fill="#F6842D"/>
<path d="M131.415 28.4635L137.065 52.1845L160.786 46.5351L183.529 142.032L159.647 147.72L165.335 171.602L229.349 156.357C238.967 154.066 247.032 150.986 253.509 147.107C259.993 143.261 264.823 138.052 268.035 131.49C271.246 124.927 272.867 116.697 272.833 106.815C272.806 96.9654 271.063 84.8474 267.627 70.4212C264.16 55.8659 260.331 44.296 256.129 35.7475C251.873 27.0415 246.943 20.6615 241.343 16.6238C235.738 12.3905 228.928 10.0577 221.904 9.96504C214.585 9.66196 206.044 10.673 196.313 12.9904L155.116 22.8019L131.415 28.4635ZM184.697 36.458L200.14 32.7802C205.465 31.5119 210.226 31.026 214.359 31.3377C218.64 31.5115 222.679 33.3684 225.599 36.5047C228.968 39.6243 231.984 44.4137 234.684 50.8814C237.529 57.3145 240.268 66.0921 242.919 77.2264C245.563 88.3284 247.058 97.4703 247.465 104.62C247.987 111.607 247.469 117.306 245.914 121.735C244.478 125.825 241.703 129.31 238.038 131.625C234.462 133.79 230.089 135.479 224.877 136.721L209.451 140.395L184.697 36.458Z" fill="#F14D34"/>
<path d="M118.855 81.7583L142.737 76.0705L137.049 52.1882L113.167 57.876L118.855 81.7583Z" fill="#F9E050"/>
<path d="M117.716 182.943L141.598 177.255L135.91 153.373L112.028 159.061L117.716 182.943Z" fill="#F9B038"/>
<path d="M89.2843 63.5633L113.167 57.8754L107.517 34.1545L83.6349 39.8423L89.2843 63.5633Z" fill="#F9E050"/>
</g>
<rect x="12" y="56.8857" width="245.381" height="147.229" transform="rotate(-13.396 12 56.8857)" fill="url(#paint0_linear_94_668)"/>
</g>
</g>
<defs>
<filter id="filter0_dd_94_668" x="-5.07001" y="0" width="307.08" height="261.169" filterUnits="userSpaceOnUse" color-interpolation-filters="sRGB">
<feFlood flood-opacity="0" result="BackgroundImageFix"/>
<feColorMatrix in="SourceAlpha" type="matrix" values="0 0 0 0 0 0 0 0 0 0 0 0 0 0 0 0 0 0 127 0" result="hardAlpha"/>
<feOffset dy="44.0975"/>
<feGaussianBlur stdDeviation="8.535"/>
<feColorMatrix type="matrix" values="0 0 0 0 0 0 0 0 0 0.0495833 0 0 0 0 0.145833 0 0 0 0.25 0"/>
<feBlend mode="normal" in2="BackgroundImageFix" result="effect1_dropShadow_94_668"/>
<feColorMatrix in="SourceAlpha" type="matrix" values="0 0 0 0 0 0 0 0 0 0 0 0 0 0 0 0 0 0 127 0" result="hardAlpha"/>
<feOffset dy="4.97875"/>
<feColorMatrix type="matrix" values="0 0 0 0 0.2375 0 0 0 0 0.136562 0 0 0 0 0.136562 0 0 0 1 0"/>
<feBlend mode="normal" in2="effect1_dropShadow_94_668" result="effect2_dropShadow_94_668"/>
<feBlend mode="normal" in="SourceGraphic" in2="effect2_dropShadow_94_668" result="shape"/>
</filter>
<filter id="filter1_d_94_668" x="0.583311" y="9.9126" width="289.32" height="245.57" filterUnits="userSpaceOnUse" color-interpolation-filters="sRGB">
<feFlood flood-opacity="0" result="BackgroundImageFix"/>
<feColorMatrix in="SourceAlpha" type="matrix" values="0 0 0 0 0 0 0 0 0 0 0 0 0 0 0 0 0 0 127 0" result="hardAlpha"/>
<feOffset dy="44.0975"/>
<feGaussianBlur stdDeviation="8.535"/>
<feColorMatrix type="matrix" values="0 0 0 0 0 0 0 0 0 0.0495833 0 0 0 0 0.145833 0 0 0 0.25 0"/>
<feBlend mode="normal" in2="BackgroundImageFix" result="effect1_dropShadow_94_668"/>
<feBlend mode="normal" in="SourceGraphic" in2="effect1_dropShadow_94_668" result="shape"/>
</filter>
<linearGradient id="paint0_linear_94_668" x1="116.198" y1="-13.8837" x2="173.098" y2="162.862" gradientUnits="userSpaceOnUse">
<stop stop-color="white"/>
<stop offset="1" stop-color="white" stop-opacity="0"/>
</linearGradient>
</defs>
</svg>
