<svg width="24" height="15" viewBox="0 0 24 15" fill="none" xmlns="http://www.w3.org/2000/svg">
<path d="M9.91797 11.0959H12.9787V7.90524H9.91797V11.0959Z" fill="#F9E050"/>
<path d="M5.41064 3.20656H8.4714V0.873077H5.41064V3.20656Z" fill="#F4F464"/>
<path d="M7.66434 5.55588H10.7251V2.3652H7.66434V5.55588ZM0.904785 5.55588H3.15848V3.20653H0.904785V5.55588ZM5.41065 7.90206H7.66434V5.5527H5.41065V7.90206Z" fill="#F4F464"/>
<path d="M9.91797 13.4389H12.9787V10.2483H9.91797V13.4389Z" fill="#F9B038"/>
<path d="M9.11243 14.9501H12.9772V12.6008H9.11243V14.9501Z" fill="#F6842D"/>
<path d="M3.15845 14.9501H5.41214V12.6008H3.15845V14.9501Z" fill="#F9E050"/>
<path d="M9.91797 4.04788H12.9787V0.873077H9.91797V4.04788Z" fill="#F6842D"/>
<path d="M5.41064 12.5992H7.66434V10.2498H5.41064V12.5992Z" fill="#F4F464"/>
<path d="M12.158 6.39722H15.2187V3.20654H12.158V6.39722Z" fill="#F4AC2B"/>
<path d="M12.158 8.74179H15.2187V5.55112H12.158V8.74179Z" fill="#F6842D"/>
<path d="M12.158 11.0959H15.2187V7.90524H12.158V11.0959Z" fill="#F4AC2B"/>
<path d="M12.158 13.4389H15.2187V10.2483H12.158V13.4389Z" fill="#F6842D"/>
<path d="M12.1732 0.873078V3.20656H14.4116V12.6008H12.158V14.9501H18.1988C19.1063 14.9501 19.8921 14.8422 20.553 14.6247C21.2138 14.4104 21.7559 14.0326 22.1823 13.4929C22.6087 12.9532 22.9285 12.223 23.1356 11.3023C23.3427 10.3848 23.4447 9.21804 23.4447 7.7989C23.4447 6.36707 23.3488 5.20509 23.1554 4.31615C22.9605 3.41133 22.6559 2.70811 22.2417 2.20808C21.8312 1.68973 21.2726 1.32156 20.6474 1.15722C20.0002 0.966735 19.216 0.87149 18.2977 0.87149H14.4101L12.1732 0.873078ZM16.7613 2.79859H18.2186C18.7211 2.79859 19.1566 2.85892 19.519 2.97956C19.8976 3.09065 20.2189 3.35307 20.4129 3.70976C20.6474 4.07486 20.8149 4.58759 20.9184 5.24954C21.0357 5.91149 21.0935 6.78932 21.0935 7.88462C21.0935 8.97676 21.0326 9.86094 20.9169 10.5356C20.8149 11.1975 20.6474 11.7166 20.4144 12.0944C20.1991 12.4433 19.8772 12.7062 19.5007 12.8405C19.1353 12.9627 18.7089 13.023 18.217 13.023H16.7613V2.79859Z" fill="#F14D34"/>
<path d="M9.91797 5.5559H12.1717V3.20654H9.91797V5.5559Z" fill="#F9E050"/>
<path d="M7.66431 14.9501H9.918V12.6008H7.66431V14.9501Z" fill="#F9B038"/>
<path d="M7.66431 3.20656H9.918V0.873077H7.66431V3.20656Z" fill="#F9E050"/>
</svg>
