<svg width="386" height="437" viewBox="0 0 386 437" fill="none" style="opacity: 0.05;" xmlns="http://www.w3.org/2000/svg">
<path d="M360.719 0.919922H207.01C193.054 0.919922 181.728 12.2459 181.728 26.201V179.91C181.728 193.866 193.054 205.191 207.01 205.191H280.578C279.617 245.439 270.263 277.647 252.566 301.866C238.611 320.979 217.476 336.805 189.212 349.294C176.217 355.007 170.605 370.378 176.672 383.221L194.875 421.649C200.74 433.985 215.251 439.396 227.791 433.985C261.263 419.525 289.528 401.221 312.583 378.974C340.697 351.822 359.96 321.181 370.376 287.001C380.792 252.821 386 206.203 386 147.045V26.201C386 12.2464 374.673 0.919922 360.719 0.919922Z" fill="#050C33"/>
<path d="M-53.3859 433.884C-20.3182 419.474 7.79438 401.171 31.0025 378.974C59.3679 351.822 78.7332 321.282 89.149 287.355C99.5649 253.428 104.772 206.658 104.772 147.045V26.201C104.772 12.2459 93.4468 0.919922 79.4911 0.919922H-74.2181C-88.1733 0.919922 -99.4992 12.2459 -99.4992 26.201V179.91C-99.4992 193.866 -88.1733 205.191 -74.2181 205.191H-0.650017C-1.61069 245.439 -10.9647 277.647 -28.6615 301.866C-42.6167 320.979 -63.7517 336.805 -92.016 349.294C-105.01 355.007 -110.623 370.378 -104.555 383.221L-86.4036 421.548C-80.5379 433.884 -65.9254 439.346 -53.3859 433.884Z" fill="#050C33"/>
</svg>
