<svg width="136" height="88" viewBox="0 0 136 88" fill="none" xmlns="http://www.w3.org/2000/svg">
<g opacity="0.07">
<path d="M45.586 68.5631H61.0663V52.4722H45.586V68.5631Z" fill="#F6842D"/>
<path d="M22.7893 28.776H38.2697V17.008H22.7893V28.776Z" fill="#F6842D"/>
<path d="M34.1878 40.6241H49.6682V24.5332H34.1878V40.6241ZM0 40.6241H11.3985V28.7761H0V40.6241ZM22.7893 52.4561H34.1878V40.6081H22.7893V52.4561Z" fill="#F6842D"/>
<path d="M45.586 80.3791H61.0663V64.2883H45.586V80.3791Z" fill="#F6842D"/>
<path d="M41.5118 87.9997H61.0586V76.1517H41.5118V87.9997Z" fill="#F6842D"/>
<path d="M11.3983 87.9997H22.7968V76.1517H11.3983V87.9997Z" fill="#F6842D"/>
<path d="M45.586 33.0188H61.0663V17.008H45.586V33.0188Z" fill="#F6842D"/>
<path d="M22.7893 76.1437H34.1878V64.2957H22.7893V76.1437Z" fill="#F6842D"/>
<path d="M56.9151 44.8669H72.3955V28.7761H56.9151V44.8669Z" fill="#F6842D"/>
<path d="M56.9151 56.6904H72.3955V40.5995H56.9151V56.6904Z" fill="#F6842D"/>
<path d="M56.9151 68.5631H72.3955V52.4722H56.9151V68.5631Z" fill="#F6842D"/>
<path d="M56.9151 80.3791H72.3955V64.2883H56.9151V80.3791Z" fill="#F6842D"/>
<path d="M56.9922 17.008V28.776H68.3136V76.152H56.9151V88H87.4677C92.0579 88 96.032 87.4556 99.3745 86.3589C102.717 85.2782 105.459 83.3729 107.615 80.651C109.772 77.9292 111.389 74.2467 112.437 69.6036C113.484 64.9764 114 59.0925 114 51.9356C114 44.7147 113.515 38.8548 112.537 34.3717C111.551 29.8087 110.011 26.2623 107.916 23.7406C105.839 21.1265 103.014 19.2698 99.852 18.441C96.5788 17.4803 92.6124 17 87.9683 17L56.9922 17.008ZM80.1973 26.7186H87.5678C90.1094 26.7186 92.3121 27.0228 94.1451 27.6312C96.06 28.1914 97.6848 29.5149 98.6659 31.3137C99.852 33.1549 100.699 35.7407 101.223 39.0789C101.816 42.4172 102.109 46.8442 102.109 52.3679C102.109 57.8756 101.801 62.3346 101.215 65.7369C100.699 69.0752 99.852 71.693 98.6737 73.5983C97.585 75.3576 95.9567 76.6834 94.0526 77.3608C92.2042 77.9772 90.0478 78.2814 87.5601 78.2814H80.1973V26.7186Z" fill="#F6842D"/>
<path d="M45.586 40.6241H56.9844V28.7761H45.586V40.6241Z" fill="#F6842D"/>
<path d="M34.1876 87.9997H45.5861V76.1517H34.1876V87.9997Z" fill="#F6842D"/>
<path d="M34.1876 28.776L45.586 28.7761V17.008H34.1876V28.776Z" fill="#F6842D"/>
</g>
<path d="M58 59.82V64C58 66.7614 60.2386 69 63 69H88.3194H127.889V69C130.159 69 132 67.1594 132 64.8889V59.82M58 59.82V20C58 17.2386 60.2386 15 63 15H65.6176H69M58 59.82H99.5M132 59.82V20C132 17.2386 129.761 15 127 15H125.471H108.5M132 59.82H116" stroke="#F14D34" stroke-width="2.5"/>
<path d="M96 53H79.3071H74C71.2386 53 69 50.7614 69 48V12C69 9.23858 71.2386 7 74 7H79.3071H103C105.761 7 108 9.23858 108 12V41.5" stroke="#F14D34" stroke-width="2.5"/>
<path d="M85.25 18V15C85.25 14.0335 86.0335 13.25 87 13.25H88.2286H97C97.9665 13.25 98.75 14.0335 98.75 15V18C98.75 18.9665 97.9665 19.75 97 19.75H88.2286H87C86.0335 19.75 85.25 18.9665 85.25 18Z" stroke="#F14D34" stroke-width="2.5"/>
<path d="M85.25 44V41C85.25 40.0335 86.0335 39.25 87 39.25H88.2286H97C97.9665 39.25 98.75 40.0335 98.75 41V44C98.75 44.9665 97.9665 45.75 97 45.75H88.2286H87C86.0335 45.75 85.25 44.9665 85.25 44Z" stroke="#F14D34" stroke-width="2.5"/>
<path d="M85.25 31V28C85.25 27.0335 86.0335 26.25 87 26.25H88.2286H97C97.9665 26.25 98.75 27.0335 98.75 28V31C98.75 31.9665 97.9665 32.75 97 32.75H88.2286H87C86.0335 32.75 85.25 31.9665 85.25 31Z" stroke="#F14D34" stroke-width="2.5"/>
<path d="M87 69V76H103V69" stroke="#F14D34" stroke-width="2.5"/>
<path d="M112 76H78" stroke="#F14D34" stroke-width="2.5"/>
<circle cx="107" cy="53" r="10.75" stroke="#050C33" stroke-width="2.5"/>
<path d="M103 53C103.474 53 108.531 53 111 53" stroke="#050C33" stroke-width="2.5"/>
<path d="M107 49C107 49.4741 107 54.5309 107 57" stroke="#050C33" stroke-width="2.5"/>
<path d="M73.5 14H80.5" stroke="#F14D34" stroke-width="3"/>
<path d="M73.5 19H77.5" stroke="#F14D34" stroke-width="3"/>
<path d="M73.5 27H80.5" stroke="#F14D34" stroke-width="3"/>
<path d="M73.5 32H77.5" stroke="#F14D34" stroke-width="3"/>
<path d="M73.5 40H80.5" stroke="#F14D34" stroke-width="3"/>
<path d="M73.5 45H77.5" stroke="#F14D34" stroke-width="3"/>
</svg>
