<svg width="136" height="88" viewBox="0 0 136 88" fill="none" xmlns="http://www.w3.org/2000/svg">
<g opacity="0.07">
<path d="M45.586 68.5631H61.0663V52.4722H45.586V68.5631Z" fill="#F6842D"/>
<path d="M22.7893 28.776H38.2697V17.008H22.7893V28.776Z" fill="#F6842D"/>
<path d="M34.1878 40.6241H49.6682V24.5332H34.1878V40.6241ZM0 40.6241H11.3985V28.7761H0V40.6241ZM22.7893 52.4561H34.1878V40.6081H22.7893V52.4561Z" fill="#F6842D"/>
<path d="M45.586 80.3791H61.0663V64.2883H45.586V80.3791Z" fill="#F6842D"/>
<path d="M41.5118 87.9997H61.0586V76.1517H41.5118V87.9997Z" fill="#F6842D"/>
<path d="M11.3983 87.9997H22.7968V76.1517H11.3983V87.9997Z" fill="#F6842D"/>
<path d="M45.586 33.0188H61.0663V17.008H45.586V33.0188Z" fill="#F6842D"/>
<path d="M22.7893 76.1437H34.1878V64.2957H22.7893V76.1437Z" fill="#F6842D"/>
<path d="M56.9151 44.8669H72.3955V28.7761H56.9151V44.8669Z" fill="#F6842D"/>
<path d="M56.9151 56.6904H72.3955V40.5995H56.9151V56.6904Z" fill="#F6842D"/>
<path d="M56.9151 68.5631H72.3955V52.4722H56.9151V68.5631Z" fill="#F6842D"/>
<path d="M56.9151 80.3791H72.3955V64.2883H56.9151V80.3791Z" fill="#F6842D"/>
<path d="M56.9922 17.008V28.776H68.3136V76.152H56.9151V88H87.4677C92.0579 88 96.032 87.4556 99.3745 86.3589C102.717 85.2782 105.459 83.3729 107.615 80.651C109.772 77.9292 111.389 74.2467 112.437 69.6036C113.484 64.9764 114 59.0925 114 51.9356C114 44.7147 113.515 38.8548 112.537 34.3717C111.551 29.8087 110.011 26.2623 107.916 23.7406C105.839 21.1265 103.014 19.2698 99.852 18.441C96.5788 17.4803 92.6124 17 87.9683 17L56.9922 17.008ZM80.1973 26.7186H87.5678C90.1094 26.7186 92.3121 27.0228 94.1451 27.6312C96.06 28.1914 97.6848 29.5149 98.6659 31.3137C99.852 33.1549 100.699 35.7407 101.223 39.0789C101.816 42.4172 102.109 46.8442 102.109 52.3679C102.109 57.8756 101.801 62.3346 101.215 65.7369C100.699 69.0752 99.852 71.693 98.6737 73.5983C97.585 75.3576 95.9567 76.6834 94.0526 77.3608C92.2042 77.9772 90.0478 78.2814 87.5601 78.2814H80.1973V26.7186Z" fill="#F6842D"/>
<path d="M45.586 40.6241H56.9844V28.7761H45.586V40.6241Z" fill="#F6842D"/>
<path d="M34.1876 87.9997H45.5861V76.1517H34.1876V87.9997Z" fill="#F6842D"/>
<path d="M34.1876 28.776L45.586 28.7761V17.008H34.1876V28.776Z" fill="#F6842D"/>
</g>
<g clip-path="url(#clip0_6106_488)">
<path d="M60 24V63C60 65.7614 62.2386 68 65 68H107M60 24V16C60 13.2386 62.2386 11 65 11H125C127.761 11 130 13.2386 130 16V49.5M60 24H95H129.5" stroke="#F14D34" stroke-width="2.5"/>
<path d="M133.715 68.0659L128.723 63.0742C129.865 59.7626 129.076 55.8951 126.379 53.1981C123.607 50.4258 119.597 49.6699 116.227 50.9543L121.458 56.1853L120.465 60.4647L116.185 61.4576L110.954 56.2266C109.67 59.5975 110.426 63.6067 113.198 66.379C115.895 69.076 119.763 69.8647 123.074 68.7231L128.066 73.7149" stroke="#050C33" stroke-width="2.5"/>
<path d="M66 18H69" stroke="#F14D34" stroke-width="2.5"/>
<path d="M72 18H75" stroke="#F14D34" stroke-width="2.5"/>
<path d="M78 18H81" stroke="#F14D34" stroke-width="2.5"/>
<path d="M71 32V35M71 58.5V44.25" stroke="#F14D34" stroke-width="2.5"/>
<circle cx="71" cy="38" r="3" stroke="#F14D34" stroke-width="2.5"/>
<path d="M81 32V48M81 58.5V56" stroke="#F14D34" stroke-width="2.5"/>
<circle cx="81" cy="50" r="3" stroke="#F14D34" stroke-width="2.5"/>
<path d="M91 32V39M91 58.5V48" stroke="#F14D34" stroke-width="2.5"/>
<circle cx="91" cy="42" r="3" stroke="#F14D34" stroke-width="2.5"/>
<rect x="103" y="32" width="19" height="7" rx="1" stroke="#F14D34" stroke-width="2.5"/>
<path d="M103 44L122 44" stroke="#F14D34" stroke-width="2.5"/>
<path d="M103 48L112 48" stroke="#F14D34" stroke-width="2.5"/>
</g>
<defs>
<clipPath id="clip0_6106_488">
<rect width="81" height="81" fill="white" transform="translate(55)"/>
</clipPath>
</defs>
</svg>
