<svg width="136" height="88" viewBox="0 0 136 88" fill="none" xmlns="http://www.w3.org/2000/svg">
<g opacity="0.07">
<path d="M45.586 68.5631H61.0663V52.4722H45.586V68.5631Z" fill="#F6842D"/>
<path d="M22.7893 28.776H38.2697V17.008H22.7893V28.776Z" fill="#F6842D"/>
<path d="M34.1878 40.6241H49.6682V24.5332H34.1878V40.6241ZM0 40.6241H11.3985V28.7761H0V40.6241ZM22.7893 52.4561H34.1878V40.6081H22.7893V52.4561Z" fill="#F6842D"/>
<path d="M45.586 80.3791H61.0663V64.2883H45.586V80.3791Z" fill="#F6842D"/>
<path d="M41.5118 87.9997H61.0586V76.1517H41.5118V87.9997Z" fill="#F6842D"/>
<path d="M11.3983 87.9997H22.7968V76.1517H11.3983V87.9997Z" fill="#F6842D"/>
<path d="M45.586 33.0188H61.0663V17.008H45.586V33.0188Z" fill="#F6842D"/>
<path d="M22.7893 76.1437H34.1878V64.2957H22.7893V76.1437Z" fill="#F6842D"/>
<path d="M56.9151 44.8669H72.3955V28.7761H56.9151V44.8669Z" fill="#F6842D"/>
<path d="M56.9151 56.6904H72.3955V40.5995H56.9151V56.6904Z" fill="#F6842D"/>
<path d="M56.9151 68.5631H72.3955V52.4722H56.9151V68.5631Z" fill="#F6842D"/>
<path d="M56.9151 80.3791H72.3955V64.2883H56.9151V80.3791Z" fill="#F6842D"/>
<path d="M56.9922 17.008V28.776H68.3136V76.152H56.9151V88H87.4677C92.0579 88 96.032 87.4556 99.3745 86.3589C102.717 85.2782 105.459 83.3729 107.615 80.651C109.772 77.9292 111.389 74.2467 112.437 69.6036C113.484 64.9764 114 59.0925 114 51.9356C114 44.7147 113.515 38.8548 112.537 34.3717C111.551 29.8087 110.011 26.2623 107.916 23.7406C105.839 21.1265 103.014 19.2698 99.852 18.441C96.5788 17.4803 92.6124 17 87.9683 17L56.9922 17.008ZM80.1973 26.7186H87.5678C90.1094 26.7186 92.3121 27.0228 94.1451 27.6312C96.06 28.1914 97.6848 29.5149 98.6659 31.3137C99.852 33.1549 100.699 35.7407 101.223 39.0789C101.816 42.4172 102.109 46.8442 102.109 52.3679C102.109 57.8756 101.801 62.3346 101.215 65.7369C100.699 69.0752 99.852 71.693 98.6737 73.5983C97.585 75.3576 95.9567 76.6834 94.0526 77.3608C92.2042 77.9772 90.0478 78.2814 87.5601 78.2814H80.1973V26.7186Z" fill="#F6842D"/>
<path d="M45.586 40.6241H56.9844V28.7761H45.586V40.6241Z" fill="#F6842D"/>
<path d="M34.1876 87.9997H45.5861V76.1517H34.1876V87.9997Z" fill="#F6842D"/>
<path d="M34.1876 28.776L45.586 28.7761V17.008H34.1876V28.776Z" fill="#F6842D"/>
</g>
<path d="M97 34H77.1357H70V51H77.1357H97" stroke="#050C33" stroke-width="2" stroke-dasharray="3 4"/>
<path d="M119 33V21C119 18.2386 116.761 16 114 16H76.3286H66C63.2386 16 61 18.2386 61 21V63C61 65.7614 63.2386 68 66 68H76.3286H114C116.761 68 119 65.7614 119 63V52" stroke="#F14D34" stroke-width="2.5"/>
<path d="M96.25 48V37C96.25 34.9289 97.9289 33.25 100 33.25H105.836H131C133.071 33.25 134.75 34.9289 134.75 37V48C134.75 50.0711 133.071 51.75 131 51.75H105.836H100C97.9289 51.75 96.25 50.0711 96.25 48Z" stroke="#F14D34" stroke-width="2.5"/>
<path d="M103 40C104.481 40 120.284 40 128 40" stroke="#F14D34" stroke-width="2.5"/>
<path d="M67 27C68.4815 27 84.284 27 92 27" stroke="#F14D34" stroke-width="2.5"/>
<path d="M67 58C67.9481 58 78.0617 58 83 58" stroke="#F14D34" stroke-width="2.5"/>
<path d="M67 62C68.1852 62 80.8272 62 87 62" stroke="#F14D34" stroke-width="2.5"/>
<path d="M79 42C79.4741 42 84.5309 42 87 42" stroke="#050C33" stroke-width="2.5"/>
<path d="M83 38C83 38.4741 83 43.5309 83 46" stroke="#050C33" stroke-width="2.5"/>
<path d="M61 21C64.437 21 101.099 21 119 21" stroke="#F14D34" stroke-width="2.5"/>
<path d="M103 45C103.948 45 114.062 45 119 45" stroke="#F14D34" stroke-width="2.5"/>
</svg>
