<svg width="136" height="88" viewBox="0 0 136 88" fill="none" xmlns="http://www.w3.org/2000/svg">
<g opacity="0.07">
<path d="M45.586 68.5631H61.0663V52.4722H45.586V68.5631Z" fill="#F6842D"/>
<path d="M22.7893 28.776H38.2697V17.008H22.7893V28.776Z" fill="#F6842D"/>
<path d="M34.1878 40.6241H49.6682V24.5332H34.1878V40.6241ZM0 40.6241H11.3985V28.7761H0V40.6241ZM22.7893 52.4561H34.1878V40.6081H22.7893V52.4561Z" fill="#F6842D"/>
<path d="M45.586 80.3791H61.0663V64.2883H45.586V80.3791Z" fill="#F6842D"/>
<path d="M41.5118 87.9997H61.0586V76.1517H41.5118V87.9997Z" fill="#F6842D"/>
<path d="M11.3983 87.9997H22.7968V76.1517H11.3983V87.9997Z" fill="#F6842D"/>
<path d="M45.586 33.0188H61.0663V17.008H45.586V33.0188Z" fill="#F6842D"/>
<path d="M22.7893 76.1437H34.1878V64.2957H22.7893V76.1437Z" fill="#F6842D"/>
<path d="M56.9151 44.8669H72.3955V28.7761H56.9151V44.8669Z" fill="#F6842D"/>
<path d="M56.9151 56.6904H72.3955V40.5995H56.9151V56.6904Z" fill="#F6842D"/>
<path d="M56.9151 68.5631H72.3955V52.4722H56.9151V68.5631Z" fill="#F6842D"/>
<path d="M56.9151 80.3791H72.3955V64.2883H56.9151V80.3791Z" fill="#F6842D"/>
<path d="M56.9922 17.008V28.776H68.3136V76.152H56.9151V88H87.4677C92.0579 88 96.032 87.4556 99.3745 86.3589C102.717 85.2782 105.459 83.3729 107.615 80.651C109.772 77.9292 111.389 74.2467 112.437 69.6036C113.484 64.9764 114 59.0925 114 51.9356C114 44.7147 113.515 38.8548 112.537 34.3717C111.551 29.8087 110.011 26.2623 107.916 23.7406C105.839 21.1265 103.014 19.2698 99.852 18.441C96.5788 17.4803 92.6124 17 87.9683 17L56.9922 17.008ZM80.1973 26.7186H87.5678C90.1094 26.7186 92.3121 27.0228 94.1451 27.6312C96.06 28.1914 97.6848 29.5149 98.6659 31.3137C99.852 33.1549 100.699 35.7407 101.223 39.0789C101.816 42.4172 102.109 46.8442 102.109 52.3679C102.109 57.8756 101.801 62.3346 101.215 65.7369C100.699 69.0752 99.852 71.693 98.6737 73.5983C97.585 75.3576 95.9567 76.6834 94.0526 77.3608C92.2042 77.9772 90.0478 78.2814 87.5601 78.2814H80.1973V26.7186Z" fill="#F6842D"/>
<path d="M45.586 40.6241H56.9844V28.7761H45.586V40.6241Z" fill="#F6842D"/>
<path d="M34.1876 87.9997H45.5861V76.1517H34.1876V87.9997Z" fill="#F6842D"/>
<path d="M34.1876 28.776L45.586 28.7761V17.008H34.1876V28.776Z" fill="#F6842D"/>
</g>
<path d="M62 16.2759H109V13C109 10.2386 106.761 8 104 8H66C63.2386 8 61 10.2386 61 13V16.2759V29.5172V46.0345C61 48.7959 63.2386 51.0345 66 51.0345H104C106.761 51.0345 109 48.796 109 46.0346C109 43.5502 109 41.0051 109 39.5" stroke="#F14D34" stroke-width="2.5"/>
<path d="M81 51.5172V68.0345C81 70.7959 83.2386 73.0345 86 73.0345H124C126.761 73.0345 129 70.7959 129 68.0345V38.2759M129 38.2759V35C129 32.2386 126.761 30 124 30H117M129 38.2759H117" stroke="#F14D34" stroke-width="2.5"/>
<path d="M110 20L98.5 23.5294M110 35L99.0535 32.4804C98.6857 32.3957 98.3094 32.3529 97.932 32.3529H94.4118C91.9752 32.3529 90 30.3777 90 27.9412V27.9412C90 25.5046 91.9752 23.5294 94.4118 23.5294H98.5M98.5 23.5294V27.9412" stroke="#050C33" stroke-width="2.5"/>
<rect x="109" y="16" width="7" height="23" rx="3.5" stroke="#050C33" stroke-width="2.5"/>
<path d="M99 32V40C99 41.1046 98.1046 42 97 42V42C95.8954 42 95 41.1046 95 40V32" stroke="#050C33" stroke-width="2.5"/>
<path d="M65.4573 12.5517H67.5144" stroke="#F14D34" stroke-width="2.5"/>
<path d="M69.5713 12.5517H71.6284" stroke="#F14D34" stroke-width="2.5"/>
<path d="M73.6858 12.5517H75.7429" stroke="#F14D34" stroke-width="2.5"/>
<path d="M68 36L83 36" stroke="#F14D34" stroke-width="2.5"/>
<path d="M68 40L76 40" stroke="#F14D34" stroke-width="2.5"/>
<rect x="69.25" y="23.25" width="12.5" height="8.5" rx="3.75" stroke="#F14D34" stroke-width="2.5"/>
<circle cx="114.899" cy="58.8995" r="5.75" transform="rotate(-45 114.899 58.8995)" stroke="#F14D34" stroke-width="2.5"/>
<path d="M119.143 63.1421L123.032 67.0312" stroke="#F14D34" stroke-width="2.5"/>
</svg>
