<svg width="136" height="88" viewBox="0 0 136 88" fill="none" xmlns="http://www.w3.org/2000/svg">
<g opacity="0.07">
<path d="M45.586 68.5631H61.0663V52.4722H45.586V68.5631Z" fill="#F6842D"/>
<path d="M22.7893 28.776H38.2697V17.008H22.7893V28.776Z" fill="#F6842D"/>
<path d="M34.1878 40.6241H49.6682V24.5332H34.1878V40.6241ZM0 40.6241H11.3985V28.7761H0V40.6241ZM22.7893 52.4561H34.1878V40.6081H22.7893V52.4561Z" fill="#F6842D"/>
<path d="M45.586 80.3791H61.0663V64.2883H45.586V80.3791Z" fill="#F6842D"/>
<path d="M41.5118 87.9997H61.0586V76.1517H41.5118V87.9997Z" fill="#F6842D"/>
<path d="M11.3983 87.9997H22.7968V76.1517H11.3983V87.9997Z" fill="#F6842D"/>
<path d="M45.586 33.0188H61.0663V17.008H45.586V33.0188Z" fill="#F6842D"/>
<path d="M22.7893 76.1437H34.1878V64.2957H22.7893V76.1437Z" fill="#F6842D"/>
<path d="M56.9151 44.8669H72.3955V28.7761H56.9151V44.8669Z" fill="#F6842D"/>
<path d="M56.9151 56.6904H72.3955V40.5995H56.9151V56.6904Z" fill="#F6842D"/>
<path d="M56.9151 68.5631H72.3955V52.4722H56.9151V68.5631Z" fill="#F6842D"/>
<path d="M56.9151 80.3791H72.3955V64.2883H56.9151V80.3791Z" fill="#F6842D"/>
<path d="M56.9922 17.008V28.776H68.3136V76.152H56.9151V88H87.4677C92.0579 88 96.032 87.4556 99.3745 86.3589C102.717 85.2782 105.459 83.3729 107.615 80.651C109.772 77.9292 111.389 74.2467 112.437 69.6036C113.484 64.9764 114 59.0925 114 51.9356C114 44.7147 113.515 38.8548 112.537 34.3717C111.551 29.8087 110.011 26.2623 107.916 23.7406C105.839 21.1265 103.014 19.2698 99.852 18.441C96.5788 17.4803 92.6124 17 87.9683 17L56.9922 17.008ZM80.1973 26.7186H87.5678C90.1094 26.7186 92.3121 27.0228 94.1451 27.6312C96.06 28.1914 97.6848 29.5149 98.6659 31.3137C99.852 33.1549 100.699 35.7407 101.223 39.0789C101.816 42.4172 102.109 46.8442 102.109 52.3679C102.109 57.8756 101.801 62.3346 101.215 65.7369C100.699 69.0752 99.852 71.693 98.6737 73.5983C97.585 75.3576 95.9567 76.6834 94.0526 77.3608C92.2042 77.9772 90.0478 78.2814 87.5601 78.2814H80.1973V26.7186Z" fill="#F6842D"/>
<path d="M45.586 40.6241H56.9844V28.7761H45.586V40.6241Z" fill="#F6842D"/>
<path d="M34.1876 87.9997H45.5861V76.1517H34.1876V87.9997Z" fill="#F6842D"/>
<path d="M34.1876 28.776L45.586 28.7761V17.008H34.1876V28.776Z" fill="#F6842D"/>
</g>
<path d="M77.25 17.25V66.75H65C62.9289 66.75 61.25 65.0711 61.25 63V21C61.25 18.9289 62.9289 17.25 65 17.25H77.25ZM79.75 17.25H125C127.071 17.25 128.75 18.9289 128.75 21V63C128.75 65.0711 127.071 66.75 125 66.75H79.75V17.25Z" stroke="#F14D34" stroke-width="2.5"/>
<path d="M85.5 24H92.5" stroke="#F14D34" stroke-width="2.5"/>
<path d="M66 24H73" stroke="#F14D34" stroke-width="2.5"/>
<path d="M66 35H73" stroke="#F14D34" stroke-width="2.5"/>
<path d="M66 41H73" stroke="#F14D34" stroke-width="2.5"/>
<path d="M66 47H73" stroke="#F14D34" stroke-width="2.5"/>
<path d="M66 53H70" stroke="#F14D34" stroke-width="2.5"/>
<path d="M96 24H103" stroke="#F14D34" stroke-width="2.5"/>
<path d="M107 24H114" stroke="#F14D34" stroke-width="2.5"/>
<path d="M91.852 48.168C91.096 48.168 90.3913 48.0467 89.738 47.804C89.094 47.552 88.534 47.1973 88.058 46.74C87.582 46.2827 87.2087 45.746 86.938 45.13C86.6767 44.514 86.546 43.8373 86.546 43.1C86.546 42.3627 86.6767 41.686 86.938 41.07C87.2087 40.454 87.582 39.9173 88.058 39.46C88.5433 39.0027 89.108 38.6527 89.752 38.41C90.396 38.158 91.1007 38.032 91.866 38.032C92.7153 38.032 93.4807 38.1813 94.162 38.48C94.8527 38.7693 95.4313 39.1987 95.898 39.768L94.442 41.112C94.106 40.7293 93.7327 40.4447 93.322 40.258C92.9113 40.062 92.4633 39.964 91.978 39.964C91.5207 39.964 91.1007 40.0387 90.718 40.188C90.3353 40.3373 90.004 40.552 89.724 40.832C89.444 41.112 89.2247 41.4433 89.066 41.826C88.9167 42.2087 88.842 42.6333 88.842 43.1C88.842 43.5667 88.9167 43.9913 89.066 44.374C89.2247 44.7567 89.444 45.088 89.724 45.368C90.004 45.648 90.3353 45.8627 90.718 46.012C91.1007 46.1613 91.5207 46.236 91.978 46.236C92.4633 46.236 92.9113 46.1427 93.322 45.956C93.7327 45.76 94.106 45.466 94.442 45.074L95.898 46.418C95.4313 46.9873 94.8527 47.4213 94.162 47.72C93.4807 48.0187 92.7107 48.168 91.852 48.168ZM97.4296 48V38.2H101.672C102.549 38.2 103.305 38.3447 103.94 38.634C104.574 38.914 105.064 39.32 105.41 39.852C105.755 40.384 105.928 41.0187 105.928 41.756C105.928 42.484 105.755 43.114 105.41 43.646C105.064 44.1687 104.574 44.57 103.94 44.85C103.305 45.13 102.549 45.27 101.672 45.27H98.6896L99.6976 44.276V48H97.4296ZM103.66 48L101.21 44.444H103.632L106.11 48H103.66ZM99.6976 44.528L98.6896 43.464H101.546C102.246 43.464 102.768 43.3147 103.114 43.016C103.459 42.708 103.632 42.288 103.632 41.756C103.632 41.2147 103.459 40.7947 103.114 40.496C102.768 40.1973 102.246 40.048 101.546 40.048H98.6896L99.6976 38.97V44.528ZM107.725 48V38.2H109.601L113.773 45.116H112.779L116.881 38.2H118.743L118.771 48H116.643L116.629 41.462H117.021L113.745 46.964H112.723L109.377 41.462H109.853V48H107.725Z" fill="#050C33"/>
</svg>
