<?xml version="1.0" encoding="utf-8"?><svg viewBox="0 0 28 34" xmlns="http://www.w3.org/2000/svg" xmlns:xlink="http://www.w3.org/1999/xlink"><style>:root>svg{display:none}:root>svg:target{display:block}</style><svg fill="none" viewBox="0 0 9 6" id="arrow-down" xmlns="http://www.w3.org/2000/svg"><path opacity=".24" d="m1 1 3.5 3.5L8 1" stroke="#fff" stroke-width="2"/></svg><svg viewBox="0 0 16 12" id="check" xmlns="http://www.w3.org/2000/svg"><path d="m.824 4.386 4.5 4.754M14.718.715 5.204 10.43" fill="#fff"/></svg><svg fill="none" viewBox="0 0 28 24" id="mail" xmlns="http://www.w3.org/2000/svg"><g opacity=".5" clip-path="url(#ca)"><path d="M3.5 3h21c.31 0 .606.105.825.293a.934.934 0 0 1 .342.707v16c0 .265-.123.52-.342.707A1.272 1.272 0 0 1 24.5 21h-21c-.31 0-.606-.105-.825-.293A.934.934 0 0 1 2.333 20V4c0-.265.123-.52.342-.707C2.894 3.105 3.191 3 3.5 3Zm19.833 4.238-9.249 7.1-9.417-7.122V19h18.666V7.238ZM5.263 5l8.808 6.662L22.752 5H5.262Z" fill="#fff"/></g><defs><clipPath id="ca"><path fill="#fff" d="M0 0h28v24H0z"/></clipPath></defs></svg><svg fill="none" viewBox="0 0 18 34" id="next" xmlns="http://www.w3.org/2000/svg"><path d="m1 1 16 16L1 33" stroke="#050C33"/></svg><svg fill="none" viewBox="0 0 24 24" id="phone" xmlns="http://www.w3.org/2000/svg"><g opacity=".5" clip-path="url(#ea)"><path d="M9.366 10.682a10.555 10.555 0 0 0 3.952 3.952l.884-1.238a1 1 0 0 1 1.294-.296 11.422 11.422 0 0 0 4.583 1.364 1 1 0 0 1 .921.997v4.462a1 1 0 0 1-.898.995A15.51 15.51 0 0 1 18.5 21C9.94 21 3 14.06 3 5.5c0-.538.027-1.072.082-1.602A1 1 0 0 1 4.077 3h4.462a1 1 0 0 1 .997.921A11.422 11.422 0 0 0 10.9 8.504a1 1 0 0 1-.296 1.294l-1.238.884Zm-2.522-.657 1.9-1.357A13.41 13.41 0 0 1 7.647 5H5.01c-.006.166-.009.333-.009.5C5 12.956 11.044 19 18.5 19c.167 0 .334-.003.5-.01v-2.637a13.413 13.413 0 0 1-3.668-1.097l-1.357 1.9a12.445 12.445 0 0 1-1.588-.75l-.058-.033a12.556 12.556 0 0 1-4.702-4.702l-.033-.058a12.444 12.444 0 0 1-.75-1.588Z" fill="#fff"/></g><defs><clipPath id="ea"><path fill="#fff" d="M0 0h24v24H0z"/></clipPath></defs></svg><svg fill="none" viewBox="0 0 18 34" id="prev" xmlns="http://www.w3.org/2000/svg"><path d="M17 1 1 17l16 16" stroke="#050C33"/></svg></svg>